<?xml version="1.0"?>
<svg xmlns="http://www.w3.org/2000/svg" viewBox="0 0 64 64" width="512" height="512"><g id="Report"><path d="M57,10H52V5a3,3,0,0,0-3-3H9A3,3,0,0,0,6,5V53a2,2,0,0,0,2,2H26V53H8V5A1,1,0,0,1,9,4H44.184A2.966,2.966,0,0,0,44,5V28h2V20h9a3,3,0,0,0,3-3V11A1,1,0,0,0,57,10ZM46,5a1,1,0,0,1,1-1h2a1,1,0,0,1,1,1V17a2.966,2.966,0,0,0,.184,1H46ZM56,17a1,1,0,0,1-1,1H53a1,1,0,0,1-1-1V12h4Z"/><path d="M52,40.942V35.816A2.993,2.993,0,0,0,51,30H45a2.993,2.993,0,0,0-1,5.816v5.127a8.978,8.978,0,0,0-3,2.42V39.816A2.993,2.993,0,0,0,40,34H34a2.993,2.993,0,0,0-1,5.816v4.975L28.536,55a5,5,0,0,0,4.58,7h7.768a4.981,4.981,0,0,0,4.94-4.276A9.113,9.113,0,0,0,48,58a9,9,0,0,0,4-17.058ZM45,32h6a1,1,0,0,1,0,2H45a1,1,0,0,1,0-2Zm.374,10.518A1,1,0,0,0,46,41.59V36h4v5.59a1,1,0,0,0,.626.928A6.952,6.952,0,0,1,53.743,45H42.27A6.968,6.968,0,0,1,45.374,42.518ZM35,45V40h4v5a.983.983,0,0,0,.084.4l1.427,3.261a8.074,8.074,0,0,0-1.181-.081,6.878,6.878,0,0,0-2.668.479,5.02,5.02,0,0,1-2,.361,4.942,4.942,0,0,1-1.425-.177L34.916,45.4A.983.983,0,0,0,35,45Zm-1-9h6a1,1,0,0,1,0,2H34a1,1,0,0,1,0-2Zm9.4,22.642A2.954,2.954,0,0,1,40.884,60H33.116a3,3,0,0,1-2.748-4.2l2.058-4.7a6.8,6.8,0,0,0,2.234.328,6.911,6.911,0,0,0,2.679-.48,5.681,5.681,0,0,1,3.975,0c.073.026.152.049.225.074L43.632,55.8A2.955,2.955,0,0,1,43.4,58.642ZM48,56a7.06,7.06,0,0,1-2.316-.4,5.106,5.106,0,0,0-.22-.6l-3.5-8H54.707A7,7,0,0,1,48,56Z"/><rect x="33" y="56" width="2" height="2"/><rect x="37" y="54" width="2" height="2"/><rect x="50" y="51" width="2" height="2"/><rect x="46" y="49" width="2" height="2"/><path d="M25.553,26.9a1,1,0,0,0,.894,0L30,25.118,33.553,26.9a1,1,0,0,0,.894,0l4-2A1,1,0,0,0,39,24V19a1,1,0,0,0-.553-.895L35,16.382V12a1,1,0,0,0-.553-.895l-4-2a1,1,0,0,0-.894,0L26,10.882,22.447,9.105a1,1,0,0,0-.894,0l-4,2A1,1,0,0,0,17,12v4.382l-3.447,1.723A1,1,0,0,0,13,19v5a1,1,0,0,0,.553.895l4,2a1,1,0,0,0,.894,0L22,25.118ZM26,24.882l-3-1.5V19.618l3-1.5,3,1.5v3.764Zm11-1.5-3,1.5-3-1.5V19.618l3-1.5,3,1.5ZM30,11.118l3,1.5v3.764l-3,1.5-3-1.5V12.618Zm-11,1.5,3-1.5,3,1.5v3.764l-3,1.5-3-1.5ZM18,24.882l-3-1.5V19.618l3-1.5,3,1.5v3.764Z"/><rect x="13" y="31" width="6" height="2"/><rect x="21" y="31" width="8" height="2"/><rect x="13" y="35" width="6" height="2"/><rect x="21" y="35" width="8" height="2"/><rect x="13" y="39" width="6" height="2"/><rect x="21" y="39" width="8" height="2"/><rect x="13" y="43" width="6" height="2"/><rect x="21" y="43" width="8" height="2"/></g></svg>
