<?xml version="1.0" standalone="no"?>
<!DOCTYPE svg PUBLIC "-//W3C//DTD SVG 20010904//EN"
 "http://www.w3.org/TR/2001/REC-SVG-20010904/DTD/svg10.dtd">
<svg version="1.0" xmlns="http://www.w3.org/2000/svg"
 width="256.000000pt" height="256.000000pt" viewBox="0 0 256.000000 256.000000"
 preserveAspectRatio="xMidYMid meet">
<metadata>
Created by potrace 1.15, written by Peter Selinger 2001-2017
</metadata>
<g transform="translate(0.000000,256.000000) scale(0.100000,-0.100000)"
fill="#000000" stroke="none">
<path d="M1931 2544 c-30 -8 -75 -26 -101 -40 -32 -17 -298 -277 -842 -822
-774 -775 -797 -799 -831 -872 -46 -97 -61 -178 -55 -288 26 -422 497 -659
860 -432 59 37 1420 1387 1444 1432 21 40 17 66 -15 99 -22 22 -39 29 -67 29
-37 0 -59 -21 -749 -708 -785 -784 -745 -749 -888 -760 -140 -10 -273 55 -348
170 -46 72 -63 141 -57 239 8 148 -37 96 827 962 461 463 792 787 815 799 83
43 195 32 271 -27 78 -59 108 -198 64 -295 -15 -35 -179 -204 -707 -732 l-687
-688 -48 0 c-40 0 -54 5 -78 29 -31 32 -38 74 -18 114 6 12 233 245 505 517
452 454 494 498 494 529 0 45 -46 91 -91 91 -31 0 -76 -42 -536 -502 -332
-332 -510 -517 -527 -548 -60 -110 -40 -236 50 -327 40 -40 64 -55 109 -69 77
-22 158 -15 223 21 34 19 253 231 744 723 811 812 763 753 763 947 0 102 -2
114 -31 175 -92 191 -294 288 -493 234z"/>
</g>
</svg>
