<?xml version="1.0" standalone="no"?>
<!DOCTYPE svg PUBLIC "-//W3C//DTD SVG 20010904//EN"
 "http://www.w3.org/TR/2001/REC-SVG-20010904/DTD/svg10.dtd">
<svg version="1.0" xmlns="http://www.w3.org/2000/svg"
 width="256.000000pt" height="256.000000pt" viewBox="0 0 256.000000 256.000000"
 preserveAspectRatio="xMidYMid meet">
<metadata>
Created by potrace 1.15, written by Peter Selinger 2001-2017
</metadata>
<g transform="translate(0.000000,256.000000) scale(0.100000,-0.100000)"
fill="#000000" stroke="none">
<path d="M402 2535 c-40 -14 -84 -32 -97 -41 -13 -9 -29 -13 -35 -9 -6 4 -9 2
-8 -3 2 -5 -20 -28 -49 -50 -28 -23 -68 -63 -88 -89 -21 -26 -41 -47 -47 -45
-5 1 -7 -2 -4 -6 3 -5 -5 -31 -18 -58 -58 -120 -56 -89 -56 -954 0 -703 2
-803 16 -851 23 -77 67 -159 118 -222 25 -30 43 -58 40 -61 -2 -3 -1 -4 2 -1
11 8 65 -36 58 -47 -4 -6 -2 -8 3 -5 6 4 35 -7 64 -23 30 -17 83 -39 118 -50
61 -19 91 -20 861 -20 770 0 800 1 861 20 35 11 88 33 118 50 29 16 58 27 63
24 4 -3 7 -2 6 3 -3 11 124 138 135 135 5 -1 6 2 3 6 -3 5 8 34 24 63 17 30
39 83 50 118 19 61 20 91 20 863 l0 799 -25 75 c-14 41 -36 92 -50 115 -14 22
-23 44 -20 50 4 5 3 8 -2 7 -4 -1 -37 27 -73 62 -39 39 -93 80 -135 102 -138
71 -90 68 -979 68 l-801 -1 -73 -24z m1721 -184 c81 -32 163 -100 159 -132 -1
-17 0 -20 7 -10 7 10 15 3 34 -31 58 -98 58 -96 55 -924 -3 -706 -4 -762 -21
-806 -14 -35 -23 -46 -35 -41 -14 4 -14 3 -3 -5 12 -8 8 -19 -21 -59 -44 -62
-125 -118 -206 -143 -61 -19 -95 -20 -801 -20 -688 0 -816 3 -807 19 2 3 -9 6
-24 7 -40 1 -127 53 -109 65 10 7 7 8 -10 7 -32 -4 -100 78 -132 159 l-24 58
0 785 0 785 24 58 c27 68 100 163 124 161 9 -1 14 2 12 7 -8 12 73 56 135 73
47 13 170 15 820 13 l765 -2 58 -24z"/>
<path d="M553 1676 c-73 -18 -159 -73 -204 -128 -21 -28 -39 -43 -42 -35 -2 6
-5 1 -5 -13 0 -14 -10 -52 -22 -85 -19 -51 -21 -76 -18 -170 3 -98 7 -117 34
-175 37 -79 70 -119 129 -158 24 -16 41 -33 37 -37 -4 -5 -2 -5 4 -2 7 4 31 0
55 -9 63 -22 196 -29 270 -15 76 15 164 58 203 100 16 17 34 28 39 24 6 -3 7
-1 4 4 -7 11 46 126 54 119 2 -2 5 10 6 27 l1 32 -78 0 c-43 0 -76 -3 -74 -7
3 -4 -5 -30 -17 -58 -23 -55 -73 -104 -96 -96 -8 3 -11 2 -8 -4 10 -17 -71
-32 -151 -28 -82 4 -161 32 -157 55 2 7 -3 10 -11 7 -16 -6 -40 21 -31 36 4 6
1 9 -6 8 -7 -2 -23 21 -36 52 -17 42 -22 75 -23 140 0 94 15 164 32 154 7 -4
8 -3 4 4 -4 6 -2 21 5 33 8 15 13 18 19 10 5 -9 9 -8 13 4 5 10 3 14 -4 9 -7
-4 -10 -1 -7 7 9 29 96 77 162 88 77 13 175 1 223 -29 40 -24 86 -84 86 -113
0 -21 3 -22 78 -22 44 0 79 3 79 7 0 4 -5 19 -10 34 -8 21 -8 29 2 36 10 6 10
8 -2 8 -8 0 -21 10 -29 21 -11 18 -11 23 1 31 10 8 9 9 -3 5 -9 -3 -22 0 -28
6 -14 14 -14 30 1 21 7 -4 8 -3 4 5 -4 6 -11 9 -15 6 -4 -2 -22 6 -40 19 -18
13 -28 26 -24 28 4 3 3 3 -4 2 -18 -4 -88 33 -72 38 8 3 -2 5 -21 6 -19 0 -84
3 -145 6 -75 4 -127 1 -162 -8z"/>
<path d="M1469 1677 c-25 -7 -70 -27 -101 -44 -31 -18 -59 -30 -62 -27 -3 2
-4 1 -1 -3 8 -10 -16 -33 -29 -26 -6 3 -8 3 -4 -2 4 -4 -7 -28 -23 -52 -113
-163 -98 -416 31 -557 40 -43 145 -106 179 -106 12 0 13 -2 3 -8 -6 -5 50 -8
125 -7 117 1 146 4 192 23 30 11 59 18 65 15 6 -3 8 -3 4 2 -8 8 72 71 85 67
5 -1 5 2 2 8 -4 6 0 19 9 29 16 18 79 151 74 156 -2 2 -40 4 -85 6 -44 2 -77
1 -71 -2 15 -9 -46 -123 -77 -143 -14 -9 -31 -14 -37 -10 -6 4 -8 3 -5 -3 21
-34 -176 -45 -253 -14 -25 10 -44 23 -43 29 2 6 -4 9 -11 6 -20 -8 -81 79 -97
135 -22 77 -14 261 11 246 4 -3 6 3 3 13 -6 26 55 102 104 130 83 46 220 48
309 6 41 -20 94 -86 94 -118 0 -20 4 -21 76 -18 61 3 75 1 69 -10 -6 -10 -5
-10 4 -2 9 8 7 25 -11 70 -12 32 -21 66 -19 74 2 8 0 12 -5 8 -10 -11 -35 12
-27 25 3 5 1 7 -4 4 -13 -8 -46 27 -36 37 5 4 4 7 -2 6 -22 -5 -36 1 -29 12 4
6 3 8 -4 4 -12 -7 -83 24 -77 34 2 4 -8 8 -23 8 -15 1 -79 3 -142 6 -79 4
-129 2 -161 -7z"/>
<path d="M2170 1609 c0 -15 -20 -30 -42 -33 -3 -1 -10 -5 -15 -10 -5 -6 -2 -6
6 -1 11 6 13 4 7 -11 -16 -38 -17 -50 -7 -76 24 -64 107 -80 153 -29 17 19 29
25 32 18 3 -7 3 -1 0 13 -2 14 -6 39 -7 57 -1 17 -4 31 -7 30 -8 -3 -50 29
-45 35 3 2 -9 2 -26 0 -20 -3 -34 0 -40 9 -7 11 -9 11 -9 -2z"/>
<path d="M2156 1113 c1 -6 -6 -19 -16 -28 -27 -25 -34 -68 -16 -103 8 -16 12
-33 8 -37 -4 -5 -2 -5 4 -2 6 4 24 1 41 -5 67 -25 129 30 118 105 -3 23 -1 37
5 37 6 0 9 4 5 10 -3 5 -12 7 -20 4 -8 -3 -24 2 -37 11 l-23 17 25 -7 c14 -4
22 -4 18 0 -10 11 -98 14 -92 3 3 -4 1 -8 -5 -8 -5 0 -11 3 -14 8 -2 4 -3 2
-1 -5z"/>
</g>
</svg>
