<?xml version="1.0" standalone="no"?>
<!DOCTYPE svg PUBLIC "-//W3C//DTD SVG 20010904//EN"
 "http://www.w3.org/TR/2001/REC-SVG-20010904/DTD/svg10.dtd">
<svg version="1.0" xmlns="http://www.w3.org/2000/svg"
 width="256.000000pt" height="256.000000pt" viewBox="0 0 256.000000 256.000000"
 preserveAspectRatio="xMidYMid meet">
<metadata>
Created by potrace 1.15, written by Peter Selinger 2001-2017
</metadata>
<g transform="translate(0.000000,256.000000) scale(0.100000,-0.100000)"
fill="#000000" stroke="none">
<path d="M1745 2506 c-28 -12 -65 -39 -83 -60 -65 -74 -62 -28 -62 -906 l-1
-799 105 -209 c58 -115 112 -212 121 -216 30 -11 62 -6 78 12 9 10 62 111 117
226 l100 207 0 768 c0 883 4 841 -83 926 -81 79 -192 98 -292 51z m193 -150
l37 -34 3 -296 3 -296 -126 0 -125 0 0 275 c0 300 4 323 55 363 19 15 42 22
71 22 36 0 51 -6 82 -34z m42 -826 l0 -60 -125 0 -125 0 0 60 0 60 125 0 125
0 0 -60z m0 -445 l0 -245 -125 0 -125 0 0 245 0 245 125 0 125 0 0 -245z"/>
<path d="M220 2218 c-77 -30 -169 -123 -199 -201 l-21 -59 2 -831 3 -832 28
-57 c36 -74 102 -139 175 -175 l57 -28 1015 0 1015 0 57 27 c69 32 137 98 175
170 l28 53 3 832 c2 827 2 831 -19 888 -25 68 -93 155 -131 167 -45 15 -82 -9
-86 -56 -3 -33 2 -44 31 -75 78 -81 72 -11 72 -906 l0 -800 -22 -41 c-28 -53
-91 -107 -142 -122 -55 -17 -1907 -17 -1962 0 -51 15 -114 69 -142 122 l-22
41 -3 774 c-3 880 -5 848 73 926 74 75 76 75 650 75 474 0 503 1 518 18 21 23
22 76 1 96 -14 14 -78 16 -557 15 -527 0 -544 -1 -597 -21z"/>
<path d="M363 1490 c-44 -18 -56 -77 -23 -110 19 -19 33 -20 493 -20 446 0
475 1 490 18 21 23 22 71 3 98 -14 18 -32 19 -478 21 -255 1 -473 -2 -485 -7z"/>
<path d="M340 1218 c-27 -29 -25 -64 5 -93 l24 -25 463 0 c522 0 508 -2 508
69 0 74 21 71 -508 71 l-471 0 -21 -22z"/>
<path d="M336 958 c-9 -12 -16 -32 -16 -43 0 -11 7 -31 16 -43 l15 -22 479 0
c530 0 510 -3 510 65 0 68 20 65 -510 65 l-479 0 -15 -22z"/>
</g>
</svg>
