<?xml version="1.0" standalone="no"?>
<!DOCTYPE svg PUBLIC "-//W3C//DTD SVG 20010904//EN"
 "http://www.w3.org/TR/2001/REC-SVG-20010904/DTD/svg10.dtd">
<svg version="1.0" xmlns="http://www.w3.org/2000/svg"
 width="256.000000pt" height="256.000000pt" viewBox="0 0 256.000000 256.000000"
 preserveAspectRatio="xMidYMid meet">
<metadata>
Created by potrace 1.15, written by Peter Selinger 2001-2017
</metadata>
<g transform="translate(0.000000,256.000000) scale(0.100000,-0.100000)"
fill="#000000" stroke="none">
<path d="M1130 2536 c-57 -38 -97 -90 -115 -153 -15 -50 -15 -65 -4 -112 45
-188 263 -263 405 -138 60 53 83 104 84 185 0 99 -36 163 -122 218 -33 21 -49
24 -125 23 -75 0 -93 -4 -123 -23z"/>
<path d="M1311 1989 c-209 -27 -394 -181 -482 -402 -30 -75 -38 -270 -14 -353
69 -240 252 -404 499 -449 91 -16 98 -16 194 3 54 11 119 30 145 44 l47 23
283 -282 c313 -312 324 -320 408 -293 55 18 85 44 109 91 25 48 25 99 1 147
-11 20 -141 158 -290 306 l-270 269 19 38 c26 50 60 197 60 258 0 124 -72 306
-158 403 -43 47 -175 148 -194 148 -5 0 -28 9 -52 19 -23 11 -80 25 -127 30
-92 12 -87 12 -178 0z m231 -169 c84 -28 141 -64 198 -127 290 -317 15 -825
-409 -755 -168 28 -307 149 -360 314 -60 190 18 408 184 516 108 70 269 92
387 52z"/>
<path d="M1310 1757 c-231 -62 -352 -323 -250 -535 61 -126 210 -222 345 -222
73 0 221 57 247 94 4 6 8 137 8 292 0 209 -3 284 -12 296 -7 9 -40 30 -73 47
-48 25 -76 32 -140 36 -47 3 -99 -1 -125 -8z"/>
<path d="M652 1980 l-372 -5 -35 -28 c-80 -64 -64 -186 32 -236 14 -7 106 -11
272 -11 l250 0 35 58 c35 58 141 168 184 191 20 10 33 44 15 39 -5 -2 -176 -5
-381 -8z"/>
<path d="M1770 1973 c0 -7 12 -19 28 -27 49 -26 163 -150 196 -213 l17 -33
103 0 c90 0 107 3 137 23 89 59 88 174 -2 238 -21 16 -53 19 -252 21 -174 2
-227 0 -227 -9z"/>
<path d="M860 533 c0 -407 1 -419 21 -453 39 -65 65 -79 146 -80 67 0 75 2
108 31 65 57 66 61 63 398 -3 259 -5 305 -18 311 -8 4 -37 17 -65 30 -68 32
-165 101 -203 144 -17 20 -36 36 -42 36 -7 0 -10 -138 -10 -417z"/>
<path d="M1565 723 c-25 -9 -80 -15 -147 -15 l-108 0 0 -290 c0 -324 2 -333
69 -388 32 -27 43 -30 104 -30 82 0 115 19 150 83 21 40 22 54 25 350 l3 307
-28 -1 c-15 -1 -46 -8 -68 -16z"/>
</g>
</svg>
