<?xml version="1.0" standalone="no"?>
<!DOCTYPE svg PUBLIC "-//W3C//DTD SVG 20010904//EN"
 "http://www.w3.org/TR/2001/REC-SVG-20010904/DTD/svg10.dtd">
<svg version="1.0" xmlns="http://www.w3.org/2000/svg"
 width="256.000000pt" height="256.000000pt" viewBox="0 0 256.000000 256.000000"
 preserveAspectRatio="xMidYMid meet">
<metadata>
Created by potrace 1.15, written by Peter Selinger 2001-2017
</metadata>
<g transform="translate(0.000000,256.000000) scale(0.100000,-0.100000)"
fill="#000000" stroke="none">
<path d="M674 2456 c-109 -25 -202 -87 -270 -179 -58 -78 -84 -164 -84 -276 0
-140 41 -234 146 -331 98 -91 185 -123 321 -118 l78 3 7 63 c19 172 120 347
250 431 112 72 103 60 84 119 -23 70 -91 158 -161 210 -99 73 -251 105 -371
78z"/>
<path d="M1410 2091 c-349 -113 -516 -488 -360 -808 83 -169 207 -271 386
-318 130 -34 322 -8 433 58 132 77 242 227 277 373 21 92 15 235 -15 324 -61
178 -221 327 -406 376 -73 20 -247 17 -315 -5z"/>
<path d="M306 1548 c-133 -100 -241 -267 -288 -446 -26 -102 -27 -102 94 -102
l87 0 142 140 c79 77 146 140 148 140 3 0 54 -48 113 -107 l107 -107 63 60
c35 34 87 78 116 98 28 21 52 42 52 48 0 6 -6 36 -14 67 -8 31 -16 67 -20 81
-5 25 -6 25 -98 21 -149 -5 -243 25 -359 115 -30 24 -59 44 -65 44 -5 0 -40
-23 -78 -52z"/>
<path d="M252 898 c-106 -101 -188 -184 -183 -186 5 -2 53 -6 106 -10 l98 -7
33 -105 c69 -220 206 -362 434 -449 41 -16 92 -32 112 -36 l37 -7 -78 79
c-118 122 -175 254 -188 438 l-6 83 89 6 c49 4 99 8 112 9 19 2 -10 34 -166
182 -105 99 -194 181 -199 182 -5 2 -96 -79 -201 -179z"/>
<path d="M1008 970 c-40 -27 -86 -61 -103 -75 l-30 -25 118 -118 c64 -64 117
-121 117 -125 0 -4 -83 -7 -185 -7 l-185 0 6 -42 c13 -84 54 -195 94 -254 47
-68 74 -93 184 -175 l80 -59 728 0 728 0 0 63 c0 163 -32 310 -96 447 -75 159
-175 273 -332 380 -70 47 -57 50 -153 -29 -167 -137 -413 -178 -617 -103 -84
32 -198 100 -241 146 -14 14 -28 26 -32 26 -4 0 -40 -22 -81 -50z"/>
</g>
</svg>
