<?xml version="1.0" standalone="no"?>
<!DOCTYPE svg PUBLIC "-//W3C//DTD SVG 20010904//EN"
 "http://www.w3.org/TR/2001/REC-SVG-20010904/DTD/svg10.dtd">
<svg version="1.0" xmlns="http://www.w3.org/2000/svg"
 width="256.000000pt" height="256.000000pt" viewBox="0 0 256.000000 256.000000"
 preserveAspectRatio="xMidYMid meet">
<metadata>
Created by potrace 1.15, written by Peter Selinger 2001-2017
</metadata>
<g transform="translate(0.000000,256.000000) scale(0.100000,-0.100000)"
fill="#000000" stroke="none">
<path d="M175 2455 l-25 -24 0 -271 0 -270 -46 0 c-37 0 -51 -5 -75 -29 l-29
-29 0 -714 c0 -786 -1 -771 62 -870 37 -58 83 -100 151 -136 l52 -27 997 -3
c990 -2 997 -2 1052 19 111 41 196 133 230 250 14 45 16 134 16 617 l0 564
-29 29 c-24 24 -38 29 -75 29 l-45 0 -3 426 -3 426 -24 19 c-23 18 -55 19
-1103 19 l-1079 0 -24 -25z m2065 -505 l0 -360 -603 0 -603 0 -64 131 c-36 72
-76 140 -89 150 -22 18 -44 19 -292 19 l-269 0 0 210 0 210 960 0 960 0 0
-360z m-1395 -365 c38 -74 76 -142 85 -150 14 -13 114 -15 736 -17 l719 -3 3
-489 c1 -321 -1 -502 -8 -528 -13 -47 -73 -116 -117 -135 -48 -20 -1918 -19
-1966 1 -43 18 -86 62 -108 111 -17 37 -19 81 -19 686 0 355 3 649 7 652 3 4
140 7 303 7 l297 0 68 -135z"/>
<path d="M654 2152 c-24 -16 -35 -51 -23 -74 7 -13 17 -26 23 -30 6 -4 85 -8
176 -8 185 0 210 7 210 60 0 53 -25 60 -210 60 -91 0 -170 -4 -176 -8z"/>
<path d="M1240 2140 c-11 -11 -20 -29 -20 -40 0 -11 9 -29 20 -40 19 -19 33
-20 413 -20 369 0 395 1 410 18 21 23 22 66 1 86 -13 14 -65 16 -410 16 -381
0 -395 -1 -414 -20z"/>
<path d="M1236 1838 c-21 -30 -20 -54 4 -78 19 -19 33 -20 408 -20 434 0 432
0 432 65 0 24 -6 38 -19 45 -13 6 -162 10 -415 10 l-395 0 -15 -22z"/>
<path d="M1223 1156 c-26 -23 -28 -30 -31 -119 l-4 -95 -95 -4 c-89 -3 -96 -5
-119 -31 -31 -36 -31 -77 1 -111 23 -25 29 -26 120 -26 l95 0 0 -85 c0 -126
35 -176 112 -159 49 10 68 54 68 157 l0 87 95 0 c88 0 98 2 120 25 32 31 32
75 1 112 -23 26 -30 28 -119 31 l-95 4 -4 95 c-3 89 -5 96 -31 119 -16 13 -41
24 -57 24 -16 0 -41 -11 -57 -24z"/>
</g>
</svg>
