<?xml version="1.0" standalone="no"?>
<!DOCTYPE svg PUBLIC "-//W3C//DTD SVG 20010904//EN"
 "http://www.w3.org/TR/2001/REC-SVG-20010904/DTD/svg10.dtd">
<svg version="1.0" xmlns="http://www.w3.org/2000/svg"
 width="256.000000pt" height="256.000000pt" viewBox="0 0 256.000000 256.000000"
 preserveAspectRatio="xMidYMid meet">
<metadata>
Created by potrace 1.15, written by Peter Selinger 2001-2017
</metadata>
<g transform="translate(0.000000,256.000000) scale(0.100000,-0.100000)"
fill="#000000" stroke="none">
<path d="M240 2254 c-50 -22 -89 -61 -116 -119 l-24 -50 0 -803 c0 -553 3
-817 11 -847 14 -55 70 -122 123 -146 39 -18 91 -19 1056 -19 965 0 1017 1
1056 19 53 24 109 91 123 146 15 61 15 1609 0 1670 -14 55 -70 122 -123 146
-39 18 -91 19 -1056 18 -885 0 -1019 -2 -1050 -15z m2064 -166 c9 -12 16 -42
16 -65 l0 -43 -1031 0 -1032 0 5 52 c4 34 12 56 24 65 14 11 199 13 1010 13
l993 0 15 -22z m16 -708 l0 -440 -1030 0 -1030 0 0 440 0 440 1030 0 1030 0 0
-440z m0 -753 c0 -122 -3 -157 -16 -175 l-15 -22 -995 1 c-973 0 -995 0 -1014
19 -18 18 -20 35 -20 175 l0 154 1030 0 1030 0 0 -152z"/>
<path d="M363 1600 c-41 -17 -24 -80 21 -80 19 0 96 -72 96 -91 0 -6 -5 -7
-12 -3 -7 4 -8 3 -4 -5 4 -6 10 -9 14 -7 4 2 27 -34 52 -80 74 -142 156 -199
250 -174 62 16 113 73 180 199 30 56 62 108 70 114 13 11 13 10 0 -8 -11 -15
-7 -14 13 4 28 25 36 38 15 25 -7 -4 -8 -3 -4 4 4 6 14 8 23 5 11 -4 14 -3 9
5 -5 8 3 12 25 12 25 0 41 -10 71 -41 26 -27 37 -47 33 -57 -3 -9 -3 -13 1 -9
4 4 27 -30 51 -75 24 -46 62 -102 85 -125 107 -109 237 -66 328 109 19 36 39
64 44 61 5 -3 6 -1 2 5 -10 16 22 74 36 66 7 -4 8 -3 4 4 -4 7 5 23 20 37 31
29 78 33 112 9 29 -20 75 -92 67 -104 -4 -6 -1 -10 4 -10 6 0 23 -23 37 -52
42 -83 73 -125 112 -151 54 -36 97 -42 123 -16 18 18 19 23 6 42 -8 12 -25 24
-37 25 -34 5 -72 33 -66 48 3 7 0 16 -6 20 -7 5 -8 2 -4 -7 4 -8 0 -5 -9 6 -9
11 -37 61 -63 110 -60 117 -122 181 -185 190 -89 14 -164 -37 -223 -149 -27
-52 -48 -73 -24 -24 11 22 10 22 -4 4 -9 -11 -14 -27 -11 -36 6 -20 -66 -134
-94 -149 -11 -6 -32 -11 -48 -11 -22 0 -25 2 -13 11 12 8 11 9 -7 7 -12 -2
-32 7 -47 21 -26 25 -36 48 -14 35 7 -4 8 -3 4 5 -4 6 -11 9 -16 6 -5 -3 -28
32 -51 77 -70 141 -141 207 -222 208 -39 0 -92 -24 -124 -57 -16 -15 -32 -28
-38 -28 -5 0 -9 -8 -7 -17 1 -9 -3 -20 -9 -24 -8 -5 -10 -2 -5 7 4 8 1 5 -8
-5 -8 -10 -13 -23 -10 -28 9 -13 -78 -168 -109 -194 -16 -13 -42 -24 -57 -24
-35 0 -104 56 -96 77 3 8 -1 16 -10 20 -8 3 -31 39 -52 80 -68 137 -154 209
-219 183z"/>
<path d="M1984 710 c-38 -15 -64 -59 -64 -107 0 -38 5 -50 35 -80 36 -36 43
-37 142 -22 23 4 56 87 49 124 -13 69 -95 112 -162 85z"/>
</g>
</svg>
