<?xml version="1.0"?>
<svg xmlns="http://www.w3.org/2000/svg" viewBox="0 0 64 64" width="512" height="512"><g id="Lab-3" data-name="Lab"><path d="M59,2H31a3,3,0,0,0-3,3V15H18a3,3,0,0,0-3,3v5H12a2.993,2.993,0,0,0-1,5.816v5L3.059,55.264A5,5,0,0,0,7.747,62H24.253a5,5,0,0,0,4.689-6.736L21,33.821v-5A2.993,2.993,0,0,0,20,23H17V18a1,1,0,0,1,1-1H28V43a3,3,0,0,0,3,3H59a3,3,0,0,0,3-3V5A3,3,0,0,0,59,2ZM12,25h3v2H12a1,1,0,0,1,0-2Zm.938,9.347A1,1,0,0,0,13,34V29h2V41.284a7.4,7.4,0,0,1-2.34.316,7.381,7.381,0,0,1-2.295-.3ZM27.066,55.958A3,3,0,0,1,24.253,60H7.747a3,3,0,0,1-2.813-4.042L9.669,43.173a9.36,9.36,0,0,0,2.991.427A9.984,9.984,0,0,0,15,43.354V46h2V42.715a7.352,7.352,0,0,1,2.33-.315,7.4,7.4,0,0,1,2.9.506l4.834,13.052ZM21.371,40.582A10.413,10.413,0,0,0,19.33,40.4a9.977,9.977,0,0,0-2.33.245V29h2v5a1,1,0,0,0,.062.347ZM20,25a1,1,0,0,1,0,2H17V25ZM55,4V7.586l-.293-.293a1,1,0,0,0-1.414,0L53,7.586V4Zm5,39a1,1,0,0,1-1,1H31a1,1,0,0,1-1-1V17h4V15H30V5a1,1,0,0,1,1-1H51v6a1,1,0,0,0,1.707.707L54,9.414l1.293,1.293A1,1,0,0,0,57,10V4h2a1,1,0,0,1,1,1Z"/><rect x="36" y="7" width="4" height="2"/><rect x="36" y="10" width="4" height="2"/><rect x="36" y="32" width="4" height="2"/><rect x="42" y="32" width="8" height="2"/><rect x="36" y="36" width="14" height="2"/><path d="M53,19a3,3,0,1,0-3-3,2.951,2.951,0,0,0,.3,1.285l-2.282,2.282A3.947,3.947,0,0,0,46,19a4,4,0,0,0-4,4,3.963,3.963,0,0,0,.091.835l-2.017,1.006a3.334,3.334,0,1,0,.889,1.792L43,25.617a3.932,3.932,0,0,0,5.554.435l1.574,1.128A2.971,2.971,0,0,0,50,28a3.015,3.015,0,1,0,1.283-2.453L49.724,24.43a3.864,3.864,0,0,0-.291-3.449L51.715,18.7A2.951,2.951,0,0,0,53,19ZM38,28a1,1,0,1,1,1-1A1,1,0,0,1,38,28ZM53,15a1,1,0,1,1-1,1A1,1,0,0,1,53,15ZM46,25a2,2,0,1,1,2-2A2,2,0,0,1,46,25Zm7,2a1,1,0,1,1-1,1A1,1,0,0,1,53,27Z"/><rect x="10" y="54" width="2" height="2"/><rect x="13" y="49" width="2" height="2"/><rect x="19" y="46" width="2" height="2"/><rect x="19" y="52" width="2" height="2"/></g></svg>
