<?xml version="1.0" standalone="no"?>
<!DOCTYPE svg PUBLIC "-//W3C//DTD SVG 20010904//EN"
 "http://www.w3.org/TR/2001/REC-SVG-20010904/DTD/svg10.dtd">
<svg version="1.0" xmlns="http://www.w3.org/2000/svg"
 width="256.000000pt" height="256.000000pt" viewBox="0 0 256.000000 256.000000"
 preserveAspectRatio="xMidYMid meet">
<metadata>
Created by potrace 1.15, written by Peter Selinger 2001-2017
</metadata>
<g transform="translate(0.000000,256.000000) scale(0.100000,-0.100000)"
fill="#000000" stroke="none">
<path d="M6 2544 c-3 -9 -6 -453 -6 -989 0 -892 1 -974 17 -986 12 -10 59 -15
179 -17 137 -3 169 -1 199 13 31 15 35 22 35 55 0 30 -6 43 -26 59 -24 19 -40
21 -148 21 l-121 0 0 860 0 860 678 0 677 0 0 -287 c0 -159 4 -293 8 -299 11
-16 48 -34 71 -34 12 0 30 9 41 20 19 19 20 33 20 361 0 215 -4 347 -10 360
-10 19 -30 19 -809 19 -719 0 -799 -2 -805 -16z"/>
<path d="M268 2179 c-36 -27 -38 -76 -5 -107 l23 -22 525 0 c498 0 525 1 549
19 17 14 24 29 24 54 0 25 -7 41 -24 56 -24 20 -36 20 -545 20 -509 0 -521 0
-547 -20z"/>
<path d="M280 1937 c-49 -25 -52 -104 -5 -125 19 -9 170 -12 546 -12 l520 0
24 25 c31 30 32 56 1 92 l-24 28 -519 2 c-403 2 -524 0 -543 -10z"/>
<path d="M1584 1709 c-60 -45 -83 -62 -139 -107 -6 -5 -22 -16 -37 -26 -47
-31 -49 -47 -46 -428 l3 -355 27 -36 c61 -78 71 -82 281 -85 l187 -4 0 -195 0
-195 -67 -69 -68 -69 -222 0 -223 0 -24 37 c-13 21 -48 71 -77 110 -30 40 -76
104 -104 143 -27 39 -55 77 -60 83 -6 7 -18 24 -27 39 l-18 27 46 22 c25 13
71 48 102 79 70 69 76 77 93 123 7 20 16 37 20 37 4 0 13 32 19 71 18 103 6
188 -37 279 -178 369 -706 330 -832 -62 -72 -227 63 -485 289 -552 30 -9 69
-16 87 -16 39 0 56 -15 128 -118 49 -70 109 -153 250 -346 l70 -96 292 0 292
0 92 93 c142 144 129 106 129 358 l0 219 193 0 c245 0 259 3 313 55 l44 42 0
389 0 390 -137 103 c-134 101 -140 104 -200 109 -56 4 -63 2 -88 -22 -26 -27
-27 -28 -23 -152 4 -149 7 -154 103 -154 75 0 96 14 104 69 6 42 6 42 26 24
11 -10 34 -28 50 -40 l30 -21 -3 -316 -3 -316 -454 0 -455 0 0 314 0 315 44
35 c23 20 45 36 48 36 3 0 8 -18 12 -40 8 -49 27 -60 105 -60 94 0 101 11 101
163 0 67 -4 127 -8 133 -14 22 -52 34 -105 34 -50 0 -60 -4 -123 -51z m-649
-438 c74 -35 116 -79 149 -154 64 -143 2 -315 -140 -387 -69 -35 -198 -36
-264 -2 -62 33 -103 74 -136 139 -38 76 -40 185 -4 258 73 150 250 216 395
146z"/>
<path d="M728 1247 c-55 -18 -127 -83 -151 -136 -25 -56 -27 -168 -4 -221 37
-85 140 -150 237 -150 86 0 188 54 220 117 8 15 19 31 25 35 6 4 10 51 10 106
0 80 -3 102 -17 116 -10 10 -18 21 -18 26 0 16 -70 78 -107 95 -46 22 -147 28
-195 12z m146 -152 c13 -9 31 -33 41 -55 17 -39 17 -41 0 -81 -24 -53 -49 -69
-106 -69 -41 0 -51 4 -79 37 -29 32 -32 41 -27 82 7 61 50 101 108 101 22 0
50 -7 63 -15z"/>
<path d="M266 1679 c-34 -27 -36 -77 -3 -107 23 -22 30 -22 298 -22 253 0 276
2 298 19 34 26 34 82 1 110 -24 19 -38 20 -296 21 -260 0 -272 -1 -298 -21z"/>
</g>
</svg>
