<?xml version="1.0" standalone="no"?>
<!DOCTYPE svg PUBLIC "-//W3C//DTD SVG 20010904//EN"
 "http://www.w3.org/TR/2001/REC-SVG-20010904/DTD/svg10.dtd">
<svg version="1.0" xmlns="http://www.w3.org/2000/svg"
 width="256.000000pt" height="256.000000pt" viewBox="0 0 256.000000 256.000000"
 preserveAspectRatio="xMidYMid meet">
<metadata>
Created by potrace 1.15, written by Peter Selinger 2001-2017
</metadata>
<g transform="translate(0.000000,256.000000) scale(0.100000,-0.100000)"
fill="#000000" stroke="none">
<path d="M777 2542 c-14 -16 -17 -43 -17 -175 l0 -157 -91 0 c-120 0 -149 -15
-149 -78 0 -53 37 -82 105 -82 l55 0 0 -807 c0 -880 1 -891 57 -996 15 -29 57
-82 94 -118 51 -52 82 -72 142 -97 l76 -32 308 0 c304 0 310 0 371 24 86 34
120 57 179 118 96 103 133 194 133 334 0 105 -27 208 -85 323 -54 109 -93 165
-196 286 -105 123 -162 175 -195 175 -45 0 -215 -177 -321 -335 -176 -261
-206 -538 -79 -715 20 -27 36 -52 36 -55 0 -13 -100 -3 -152 16 -76 28 -140
85 -175 157 l-28 57 -3 663 -3 662 316 0 315 0 0 -89 c0 -82 2 -92 26 -120 33
-39 74 -41 109 -6 l25 24 0 266 0 265 56 0 c49 0 59 4 86 30 25 26 29 36 24
63 -11 55 -36 67 -142 67 l-94 0 0 149 c0 135 -2 151 -21 175 l-20 26 -363 0
c-339 0 -364 -1 -379 -18z"/>
</g>
</svg>
