<?xml version="1.0" standalone="no"?>
<!DOCTYPE svg PUBLIC "-//W3C//DTD SVG 20010904//EN"
 "http://www.w3.org/TR/2001/REC-SVG-20010904/DTD/svg10.dtd">
<svg version="1.0" xmlns="http://www.w3.org/2000/svg"
 width="256.000000pt" height="256.000000pt" viewBox="0 0 256.000000 256.000000"
 preserveAspectRatio="xMidYMid meet">
<metadata>
Created by potrace 1.15, written by Peter Selinger 2001-2017
</metadata>
<g transform="translate(0.000000,256.000000) scale(0.100000,-0.100000)"
fill="#000000" stroke="none">
<path d="M1361 2224 c-86 -23 -151 -63 -226 -140 -63 -64 -90 -106 -277 -440
-242 -433 -244 -436 -263 -511 -56 -216 57 -473 251 -571 163 -82 323 -81 485
4 97 51 170 133 258 289 145 256 199 352 269 475 99 175 129 244 142 325 40
253 -122 506 -365 571 -65 18 -205 17 -274 -2z m302 -117 c102 -47 191 -148
223 -255 18 -56 19 -174 4 -234 -12 -46 -228 -438 -242 -438 -4 0 -43 19 -85
43 -128 72 -618 349 -621 352 -3 3 20 45 149 274 74 133 141 206 222 245 81
40 110 46 208 42 67 -3 99 -9 142 -29z m-70 -961 c17 -13 12 -25 -78 -188
-107 -191 -157 -248 -253 -294 -102 -48 -229 -52 -220 -6 3 13 18 18 71 24
147 14 211 69 349 303 57 96 105 174 108 174 3 0 13 -6 23 -13z"/>
</g>
</svg>
