<?xml version="1.0" standalone="no"?>
<!DOCTYPE svg PUBLIC "-//W3C//DTD SVG 20010904//EN"
 "http://www.w3.org/TR/2001/REC-SVG-20010904/DTD/svg10.dtd">
<svg version="1.0" xmlns="http://www.w3.org/2000/svg"
 width="256.000000pt" height="256.000000pt" viewBox="0 0 256.000000 256.000000"
 preserveAspectRatio="xMidYMid meet">
<metadata>
Created by potrace 1.15, written by Peter Selinger 2001-2017
</metadata>
<g transform="translate(0.000000,256.000000) scale(0.100000,-0.100000)"
fill="#000000" stroke="none">
<path d="M291 2266 c-156 -156 -282 -289 -280 -295 3 -8 589 565 589 576 0 22
-70 -42 -309 -281z"/>
<path d="M341 2216 c-183 -183 -332 -339 -330 -345 3 -8 689 665 689 676 0 22
-78 -50 -359 -331z"/>
<path d="M391 2166 c-211 -211 -382 -389 -380 -395 3 -8 789 765 789 776 0 22
-86 -57 -409 -381z"/>
<path d="M441 2116 c-238 -238 -432 -439 -430 -445 3 -8 889 865 889 876 0 22
-93 -65 -459 -431z"/>
<path d="M1921 2296 c-139 -139 -249 -256 -244 -259 7 -4 523 499 523 510 0
22 -66 -38 -279 -251z"/>
<path d="M1995 2270 c-153 -153 -276 -283 -272 -287 7 -6 572 543 575 560 7
30 -58 -28 -303 -273z"/>
<path d="M2060 2235 l-315 -314 -17 37 c-26 52 -62 86 -127 120 -43 23 -148
62 -167 62 -1 0 -8 -16 -14 -35 -6 -20 -16 -32 -22 -29 -6 4 -8 -1 -4 -14 4
-11 2 -23 -3 -27 -7 -4 -8 1 -4 12 3 10 -36 -22 -88 -72 -52 -49 -93 -91 -92
-93 4 -9 55 28 112 82 44 41 57 51 42 29 -30 -45 -97 -97 -156 -125 -42 -19
-67 -22 -160 -23 -102 0 -114 2 -170 29 -32 16 -79 47 -102 69 l-43 39 23 18
c12 10 19 22 15 26 -5 4 -17 -1 -27 -10 -19 -18 -21 -17 -40 15 -12 19 -26 49
-32 67 -12 37 -18 38 -91 13 -133 -46 -218 -134 -221 -230 l-2 -51 -174 -174
c-95 -95 -172 -179 -170 -185 2 -6 84 69 181 167 l178 178 34 -102 34 -102
-215 -215 c-119 -118 -214 -219 -212 -225 2 -7 101 85 220 204 l216 215 47
-137 47 -138 -267 -267 c-146 -146 -265 -272 -263 -278 2 -6 124 109 271 257
261 261 268 267 277 241 9 -25 3 -34 -81 -117 -50 -50 -97 -93 -104 -96 -36
-14 -73 -131 -74 -237 0 -45 -1 -46 -145 -189 -80 -79 -145 -151 -145 -159 0
-9 65 49 145 129 144 144 145 145 145 110 0 -31 -14 -49 -146 -181 -81 -81
-145 -152 -143 -158 3 -7 68 53 145 131 l142 143 5 -81 6 -82 -150 -148 c-82
-81 -149 -155 -149 -163 0 -9 70 54 155 139 89 89 155 148 155 138 0 -9 2 -22
5 -30 3 -7 -14 -32 -38 -54 -186 -181 -280 -281 -276 -293 3 -7 37 21 76 62
l71 73 6 -32 c14 -73 74 -114 166 -114 l60 0 -32 -30 c-23 -20 -28 -30 -17
-30 8 0 26 11 39 25 21 23 31 25 108 25 l85 0 -23 -25 c-19 -21 -21 -25 -7
-25 9 0 22 9 29 20 11 18 24 20 100 20 49 0 88 -3 88 -6 0 -4 -8 -13 -17 -20
-17 -13 -17 -13 0 -14 10 0 20 7 24 16 5 13 25 15 132 13 l126 -3 145 81 c80
45 154 85 165 88 11 3 4 -3 -15 -14 -44 -25 -200 -181 -180 -181 14 0 214 188
215 203 0 4 70 46 155 93 200 110 213 123 218 211 3 41 10 75 19 85 14 16 18
12 45 -42 35 -70 103 -134 167 -156 l46 -16 -188 -187 c-103 -102 -182 -188
-176 -190 6 -2 95 80 198 182 l186 185 68 5 c88 6 162 43 223 110 26 29 42 43
36 32 -20 -35 -46 -61 -102 -103 -70 -52 -431 -415 -407 -410 24 4 717 697
717 717 0 9 -44 -29 -99 -83 l-99 -98 20 58 c43 127 -12 285 -126 359 l-28 18
167 167 c92 92 166 173 164 179 -2 6 -81 -66 -175 -159 -94 -94 -168 -172
-166 -175 9 -9 -5 -5 -44 11 -55 23 -174 15 -232 -15 -24 -12 -46 -20 -49 -18
-2 3 6 8 19 12 29 9 648 624 648 645 0 13 -672 -646 -674 -661 -1 -3 -22 -29
-49 -59 -26 -29 -44 -44 -40 -35 3 10 -10 1 -30 -21 l-36 -39 -1 55 c-1 30 -5
64 -10 75 -7 17 53 81 417 446 234 235 424 432 422 438 -2 6 -197 -181 -432
-417 l-427 -428 -23 24 c-38 41 -126 72 -153 54 -5 -4 -21 -35 -33 -69 -13
-35 -27 -61 -31 -58 -10 6 -90 -81 -90 -97 0 -7 21 8 45 34 25 26 45 45 45 43
0 -16 -55 -146 -58 -137 -4 14 -62 -50 -62 -69 0 -8 14 0 30 18 l29 32 -6 -37
c-8 -51 -25 -87 -43 -87 -8 0 -15 -6 -15 -13 0 -26 -32 -32 -168 -32 l-138 0
28 25 c17 15 23 24 14 25 -8 0 -25 -10 -37 -21 -21 -19 -33 -21 -120 -20 -53
1 -108 7 -122 12 l-27 11 23 18 c16 13 19 21 11 26 -7 4 -19 -2 -29 -14 l-17
-21 -21 21 -21 21 22 18 c12 9 19 21 15 25 -5 4 -17 -1 -28 -11 -19 -17 -20
-17 -30 10 -9 23 -7 29 11 44 12 10 20 23 18 30 -3 8 -11 6 -25 -7 l-21 -20
-47 136 -47 136 24 24 24 24 22 -63 21 -63 -22 -23 c-12 -13 -18 -26 -14 -30
4 -5 16 2 26 14 17 22 18 21 55 -87 30 -88 44 -116 71 -140 19 -16 43 -30 53
-30 29 0 32 -11 8 -31 -19 -16 -20 -18 -5 -19 10 0 23 9 30 20 12 19 24 20
215 20 190 0 204 1 223 20 42 42 14 130 -41 130 -18 0 -19 2 -9 15 10 12 10
15 -3 15 -8 0 -17 -5 -19 -11 -3 -9 -36 -9 -123 -3 l-118 9 -28 82 c-15 45
-25 92 -22 105 3 17 2 19 -5 9 -7 -10 -19 14 -42 85 -18 55 -35 105 -38 113
-3 9 -1 12 5 8 6 -4 13 -2 15 5 8 22 98 -256 91 -282 -5 -21 -3 -23 8 -13 7 7
34 13 60 13 l46 0 45 118 c25 64 83 215 128 334 46 119 87 216 93 215 6 -1 12
7 14 18 3 16 2 17 -6 5 -17 -24 -13 -6 16 71 15 40 29 67 31 59 3 -9 9 -5 19
11 19 31 14 17 -49 -148 -28 -73 -54 -133 -59 -133 -5 0 -6 -8 -3 -17 4 -14 3
-15 -4 -5 -7 11 -10 10 -16 -3 -9 -24 -8 -27 6 -19 8 5 9 2 4 -12 -4 -10 -47
-125 -96 -254 -49 -129 -92 -243 -95 -252 -4 -11 -18 -18 -34 -18 -20 0 -23 2
-11 10 13 8 12 10 -3 10 -10 0 -20 -7 -23 -15 -4 -8 -12 -15 -20 -15 -19 0
-18 -14 4 -32 11 -10 58 -20 137 -28 66 -7 133 -19 149 -26 16 -8 33 -11 36
-7 4 5 36 84 70 177 35 93 65 165 67 160 2 -5 244 232 539 527 295 295 535
542 533 548 -2 6 -244 -229 -536 -522 -293 -293 -530 -524 -527 -515 12 38 53
132 54 123 0 -6 228 218 506 496 279 279 505 512 503 518 -2 6 -230 -215 -506
-492 -277 -276 -500 -494 -497 -485 12 38 53 132 54 123 0 -6 214 204 476 466
262 262 475 482 473 488 -2 6 -217 -202 -477 -462 -260 -260 -470 -466 -467
-458 105 272 135 356 137 379 1 22 65 90 323 342 177 173 323 318 323 323 7
30 -62 -32 -338 -308z m-1306 -622 c27 -78 43 -140 40 -154 -4 -17 -3 -20 4
-11 7 11 12 6 21 -19 9 -25 8 -34 -1 -40 -10 -7 -10 -11 0 -21 9 -9 12 -9 13
2 0 8 8 -7 18 -35 31 -86 34 -98 23 -91 -6 3 -12 1 -14 -5 -7 -20 -97 258 -91
283 3 16 2 19 -5 9 -7 -10 -19 14 -42 85 -18 55 -35 105 -38 113 -3 9 -1 12 6
7 7 -4 12 -2 12 5 0 25 10 0 54 -128z m-41 -1263 l352 -1 -57 -29 -57 -30
-148 10 c-81 5 -170 10 -197 10 -46 0 -48 1 -30 15 16 12 16 14 3 15 -9 0 -21
-6 -27 -12 -7 -9 -36 -12 -98 -10 -55 2 -82 7 -74 12 9 6 -9 7 -44 3 l-58 -6
29 29 c26 27 29 28 41 12 12 -17 42 -18 365 -18z"/>
<path d="M2107 2182 c-202 -202 -367 -374 -367 -382 0 -14 755 726 758 743 7
31 -70 -39 -391 -361z"/>
<path d="M982 2530 c-98 -21 -186 -92 -234 -189 -19 -37 -23 -63 -23 -131 1
-78 4 -91 35 -149 63 -118 169 -176 303 -169 122 6 215 68 274 180 23 46 27
65 27 138 0 68 -5 94 -23 131 -67 139 -218 218 -359 189z"/>
<path d="M2118 2093 c-240 -241 -439 -447 -442 -458 -3 -11 195 181 440 426
246 246 445 452 443 458 -2 6 -200 -186 -441 -426z"/>
<path d="M1992 1567 c-309 -309 -562 -569 -562 -577 0 -8 255 240 566 551 312
312 565 572 563 578 -2 6 -257 -242 -567 -552z"/>
<path d="M2070 1545 c-267 -267 -478 -485 -470 -485 20 0 964 944 959 959 -2
6 -222 -207 -489 -474z"/>
<path d="M2104 1479 c-248 -247 -446 -453 -441 -456 12 -7 901 881 896 896 -2
6 -207 -192 -455 -440z"/>
<path d="M2146 1321 c-225 -225 -407 -414 -405 -420 2 -6 188 173 413 398 225
225 407 414 405 420 -2 6 -188 -173 -413 -398z"/>
<path d="M2240 315 c-173 -173 -308 -315 -300 -315 20 0 624 604 619 619 -2 6
-146 -131 -319 -304z"/>
<path d="M2290 265 c-146 -146 -258 -265 -250 -265 20 0 524 504 519 519 -2 6
-123 -108 -269 -254z"/>
</g>
</svg>
